# xmcd
#
# Track frame offsets:
#	150
#	9721
#	23530
#	46724
#	66842
#	76222
#	103059
#	122265
#	145622
#	165889
#	191839
#	213295
#	242438
#	273101
#	293378
#	323687
#
# Disc length: 4729 seconds
#
# Revision: 0
# Processed by: cddbd v1.5.2PL0 Copyright (c) Steve Scherf et al.
# Submitted via: dBpowerAMP V4.0
#
DISCID=be127710
DTITLE=Various Artist - Pharmacy Our Law Vol.4 CD 2
DYEAR=1900
DGENRE=
TTITLE0=Intro - Organ Donors
TTITLE1=Advanced (Original Mix) - Marcel Woods
TTITLE2=Basic - Marcel Woods
TTITLE3=Celina - Boriqua Tribez
TTITLE4=6Hours (Original Mix) - Yoji Biomehanika and Romeo Tosicani
TTITLE5=Human Design (Scot Project Mix) - Shy Brothers
TTITLE6=TanssetterZ (Original Mix) - Bas and Ram Meets Massimo Nocito
TTITLE7=Until Monday (Mac and Mac Mix) - Giuseppe Ottaviani and Marc Van Linden
TTITLE8=Brain Damage (Tech Mix) - Miss Jarea
TTITLE9=Go Away (Kamui Mix) - Dr Willis and Scott Alert
TTITLE10=Tonka (Organ Donors Audio Surgery Edit) - Jesslyn
TTITLE11=Live For The Weekend (Organ Donors Fucking Twisted Remix) - Vinylgroover and The Red Hed
TTITLE12=Generate The Wve (Fabio Stein Mix) - Dave 202
TTITLE13=It's Just A Felling (Organ Donors Mix) - BK
TTITLE14=Turntable Junkie - Uberdruck
TTITLE15=99.9 (2007 Mix) - Organ Donors
EXTD=Pharmacy Our Law Vloume 4 Disc 2
EXTT0=
EXTT1=
EXTT2=
EXTT3=
EXTT4=
EXTT5=
EXTT6=
EXTT7=
EXTT8=
EXTT9=
EXTT10=
EXTT11=
EXTT12=
EXTT13=
EXTT14=
EXTT15=
PLAYORDER=
